<svg xmlns="http://www.w3.org/2000/svg" id="Layer_1" data-name="Layer 1" viewBox="0 0 760.0611 1024.4845"><defs><style>.cls-1,.cls-16{fill:#f19888;}.cls-1,.cls-14,.cls-16,.cls-2{stroke:#9c1801;}.cls-1,.cls-13,.cls-14,.cls-16,.cls-17,.cls-2,.cls-4{stroke-miterlimit:10;}.cls-1,.cls-2{stroke-width:8px;}.cls-2{fill:#ff9310;}.cls-3{fill:#fefff4;}.cls-13,.cls-17,.cls-4{fill:none;}.cls-4{stroke:#ff9310;}.cls-5{fill:#f27406;}.cls-6{fill:#f3740b;}.cls-7{fill:#f37312;}.cls-8{fill:#ed6f09;}.cls-9{fill:#f3720d;}.cls-10{fill:#eb6d00;}.cls-11{fill:#ffc2b5;}.cls-12{fill:#f5fff8;}.cls-13{stroke:#ffc2b5;}.cls-14{fill:#f19890;stroke-width:5px;}.cls-15{fill:#fcc2b4;opacity:0.51;}.cls-16{stroke-width:7px;}.cls-17{stroke:#981d0d;}.cls-18{fill:#981d0d;}.cls-19{fill:#f6fcfc;}.cls-20{fill:#a2260a;}</style></defs><path class="cls-1" d="M956.0351,598.9345a263.7132,263.7132,0,0,1-80.1558-1.2928c-24.1681-4.1427-83.3274-14.2833-122.8192-59.47-13.8277-15.8218-10.2382-18.77-38.7851-80.1557-38.6972-83.2121-48.1243-83.8822-56.8847-116.3551-18.3234-67.9209,5.5049-129.54,11.6355-144.7974C708.1517,99.49,797.3759,63.1281,812.5305,57.237c16.983-6.602,106.6928-41.4754,197.8036,5.1713,6.8354,3.4995,84.0279,44.3131,108.5981,120.2336,5.246,16.21,4.2945,22.2828,15.514,60.7632,13.25,45.4453,20.323,56.6818,28.4423,89.2056,8.5439,34.2244,13.38,53.596,11.6356,78.8629-4.5239,65.53-49.1115,109.92-59.47,120.2336a214.777,214.777,0,0,1-85.3271,51.7133,287.8008,287.8008,0,0,0,58.824-29.0887q1.2333,1.9455,2.5856,3.8785c13.26,18.9294,31.3983,31.0034,49.1277,38.785a107.5394,107.5394,0,0,0,73.6916-32.3209,23.7687,23.7687,0,0,0,12.9283,12.9284,32.2647,32.2647,0,0,1-7.757-5.1714c-17.7952-16.0973-10.3108-46.89-9.05-51.7133.9512-3.6382,6.0709-23.2229,15.514-24.5639,1.0012-.1422,1.6121-.0169,14.2212,0,2.2037.003,4.0077.0016,5.1713,0a117.7863,117.7863,0,0,1,12.9284-34.9065c9.9793-17.5688,17.1234-19.0859,19.3925-19.3925,1.2182-.1646,6.3859-.863,10.3427,2.5856,4.724,4.1174,3.9743,10.88,3.8785,11.6355a39.579,39.579,0,0,1,11.6355-14.2211c3.8624-2.91,8.6739-6.5359,12.9283-5.1714,6.2058,1.99,7.3972,13.37,7.757,16.8069,1.8286,17.4655-8.0235,32.372-14.2212,40.0778,1.1654-.0326,8.2556-.1208,12.9284,5.1714,4.8945,5.5433,5.1366,14.7244,0,21.9782l-12.9284,12.9283c4.7372-6.3557,11.514-9.4429,16.8069-7.757,7.0648,2.25,8.7009,12.1172,9.05,14.2212,2.319,13.9855-7.7081,26.1638-18.1,38.785-8.6366,10.49-13.2056,16.039-21.9781,19.3925-14.2092,5.4318-27.6939.61-32.3209-1.2928l20.6854,3.8785a301.7353,301.7353,0,0,1-9.05,38.785c-7.1366,23.4667-16.2575,53.4583-40.0779,81.4486-9.5423,11.2129-27.0477,28.6894-55.5918,42.6635L833.8622,805.1416q5.1714-12.2818,10.3427-24.5638a29.6848,29.6848,0,0,0-16.8069,3.8785c-11.3517,6.638-13.8476,18.7153-14.2211,20.6853a133.08,133.08,0,0,1-43.9564,0c-7.1678-1.2134-60.1993-11.0738-90.4984-59.47a126.8309,126.8309,0,0,1-16.8068-42.6635,59.5509,59.5509,0,0,1-33.6137-3.8785c-2.7614-1.21-32.8149-14.9663-33.6137-43.9564-.6481-23.5189,18.4724-38.4111,20.6853-40.0778l-31.028-37.4922a14.1787,14.1787,0,0,1,21.9782-15.514,23.842,23.842,0,0,1,11.6355-7.757c11.3574-3.14,21.8088,4.4606,24.5638,6.4641,9.1008,6.6181,8.5263,12.2552,23.2711,27.1495,2.7245,2.7523,5.1942,5.0347,9.05,6.4642,7.6907,2.8515,11.8989-1.0262,18.1,0,11.3113,1.872,18.8221,18.3359,20.6853,29.7352,2.4654,15.083-4.0236,27.0088-6.4641,31.028l6.4641-15.514c6.3648,2.6367,15.6842,6.3438,27.1495,10.3427,25.4579,8.8792,30.9853,8.5559,34.9066,7.757,8.4635-1.7243,14.2612-7.1828,25.8567-18.1,13.405-12.6206,14.8982-18.8533,27.15-27.1495a96.5048,96.5048,0,0,1,18.1-9.05c31.8572-12.0755,77.48-4.0321,85.327-2.5857l23.271-1.2928Z" transform="translate(-579.7582 -34.5155)"></path><path class="cls-2" d="M839.0336,781.8706c-3.4326-2.2633-13.6969,5.1843-19.3926,14.2212-7.4626,11.84-6.0162,24.7175-5.1713,29.7352a82.45,82.45,0,0,0-45.2492,9.05c-5.4561,2.8765-26.6409,14.4394-36.1994,38.785-5.9126,15.06-4.3727,28.14-1.2928,54.2991a287.4859,287.4859,0,0,0,9.05,45.2492c-3.1106,2.2565-8.5279,6.9261-10.3426,14.2211-2.88,11.579,5.2131,22.1421,9.05,27.15,21.8616,28.5323,69.454,38.18,108.5981,33.6137a156.766,156.766,0,0,0,33.6137-7.7571,127.428,127.428,0,0,0,129.2834-6.4641l125.4049-6.4642c6.7664,1.1506,15.0562,2.4918,24.5639,3.8785,15.0765,2.1989,20.6555,2.68,27.1495,0a22.8487,22.8487,0,0,0,10.3427-7.757c3.6143-5.1112,3.8031-10.6553,3.8785-14.2212.3443-16.2942.2279-30.4509,0-41.3707a679.5227,679.5227,0,0,0,7.757-94.3769c.7323-62.1608-7.7266-78.4989-12.9283-86.62-15.5971-24.35-40.58-35.1948-55.5919-40.0778a156.4224,156.4224,0,0,0,2.5856-50.4206c-2.377-20.4525-7.004-22.5484-7.757-41.3707-.9248-23.12,5.7826-26.7976,2.5857-47.8348-1.2617-8.3028-4.2307-27.8409-16.8068-32.3209a19.0056,19.0056,0,0,0-11.6355,0l-21.9782-20.6853-42.6636,23.271a129.67,129.67,0,0,1-2.5856,37.4922c-6.071,27.6064-18.533,39.5085-34.9066,67.2273-27.2731,46.171-15.42,51.6159-37.4921,80.1558-27.0822,35.0178-59.6471,45.8542-65.9346,47.8348-25.3715,7.9926-60.3627,9.6093-67.2274-3.8785C833.0877,797.292,843.0374,784.5106,839.0336,781.8706Z" transform="translate(-579.7582 -34.5155)"></path><path class="cls-3" d="M895.9183,1008.1166A293.388,293.388,0,0,1,757.585,903.397a361.5244,361.5244,0,0,0,42.6635,95.67,160.3493,160.3493,0,0,1-45.2492-47.8348,129.1189,129.1189,0,0,0,12.9284,42.6635,22.1381,22.1381,0,0,1-10.3427-3.8785,23.297,23.297,0,0,1-7.757-10.3427c-12.0528-28.53-14.2212-46.5418-14.2212-46.542-3.4711-28.8323-5.2066-43.2485,0-56.8847,1.1714-3.068,10.1816-25.6548,33.6137-37.4922,6.18-3.122,25.7606-13.0137,37.4922-3.8785a21.8,21.8,0,0,1,7.757,19.3925c-1.86,13.137-16.7347,14.5754-21.9782,28.4424-3.9414,10.4235.2461,20.7647,3.8785,29.7352,8.3749,20.6819,22.4555,31.7663,45.2492,50.42C853.1581,972.3107,871.8491,987.72,895.9183,1008.1166Z" transform="translate(-579.7582 -34.5155)"></path><path class="cls-4" d="M1030.373,886.59c11.0822-13.5693,20.817-24.9161,28.4424-33.6137,30.5374-34.8317,45.8061-52.2475,53.0062-56.8847a51.856,51.856,0,0,0,15.514-15.514c5.2667-8.2812,5.358-14.121,5.1713-16.8069-.1977-2.8432-.6027-8.6684-5.1713-11.6355-3.5715-2.32-7.6888-1.5942-9.05-1.2928a86.3116,86.3116,0,0,0-18.1,6.4641c-23.6594,11.5824-36.0272,31.2423-41.3707,41.3707a69.7363,69.7363,0,0,1,12.9283-10.3426c6.1175-3.7948,14.647-7.7577,15.514-6.4642.6387.9529-3.1022,4.4292-5.1713,6.4642-6.7389,6.6275-11.8186,14.761-21.9782,31.028C1044.3215,844.64,1031.6487,882.711,1030.373,886.59Z" transform="translate(-579.7582 -34.5155)"></path><path class="cls-5" d="M1049.7655,581.4813a81.236,81.236,0,0,1,10.3427,11.6355c3.9429,5.4,7.3061,10.0058,9.05,16.8068a37.4528,37.4528,0,0,1,0,18.1,144.1106,144.1106,0,0,0,10.3426-21.9782c2.8191-7.6044,7.0477-19.2906,7.757-34.9065.171-3.7616.0985-6.8915,0-9.05-3.2313,2.1708-6.6772,4.338-10.3426,6.4641A185.7824,185.7824,0,0,1,1049.7655,581.4813Z" transform="translate(-579.7582 -34.5155)"></path><path class="cls-6" d="M1057.5225,718.5217a117.15,117.15,0,0,1-3.8785-27.1495c-.9884-41.6416,20.855-72.6728,31.0281-85.3271a164.617,164.617,0,0,1-27.15,112.4766Z" transform="translate(-579.7582 -34.5155)"></path><path class="cls-5" d="M1089.8434,612.5093a84.9,84.9,0,0,1,9.05,19.3925c4.798,15.0309,5.246,31.3169-3.8785,68.52a519.1629,519.1629,0,0,1-21.9781,68.52c2.5233-2.3425,17.2152-15.7473,34.9065-20.6853a90.1776,90.1776,0,0,1,17.7529-2.8388,78.7,78.7,0,0,1,10.6894.2531,97.8213,97.8213,0,0,0,6.4642-34.9065c-.0677-15.4349-3.989-23.144-6.4642-42.6635a201.7859,201.7859,0,0,1-1.2928-36.1994,55.6025,55.6025,0,0,0-10.3427-53.0062l-36.1993-18.1Q1089.1971,586.6526,1089.8434,612.5093Z" transform="translate(-579.7582 -34.5155)"></path><path class="cls-7" d="M1124.75,748.2569a68.4748,68.4748,0,0,1,11.6355,16.8068c7.845,16.0866,7.0546,31.3187,6.4642,41.3707-1.9522,33.2414-10.3281,62.5493-11.6355,67.2274-6.459,23.111-11.4338,57.0605-3.8785,103.4268a145.5385,145.5385,0,0,1,34.9065,32.3208,84.28,84.28,0,0,1-25.8567,15.514c8.3389,1.245,17.8766,2.5736,28.4424,3.8785,16.2381,2.0056,22.0449,2.3669,27.1495-1.2928,4.4249-3.1723,6.0155-7.7265,7.757-12.9283,5.0924-15.2118,1.3217-25.2629,1.2929-43.9564-.0109-7.0293.5178-8.5167,2.5856-27.1495,3.3906-30.5515,5.9677-53.7731,6.4642-74.9844.82-35.0163,1.2295-52.5244-7.757-71.1059-3.0617-6.3305-16.7092-34.55-47.8349-45.2492A76.4225,76.4225,0,0,0,1124.75,748.2569Z" transform="translate(-579.7582 -34.5155)"></path><path class="cls-8" d="M1035.5444,890.4687h0c1.3955,1.8605,10.0287,13.7673,6.4641,28.4423a32.1623,32.1623,0,0,1-7.757,14.2212,17.7893,17.7893,0,0,1,1.2929,9.05,18.465,18.465,0,0,1-6.4642,11.6355v3.8786l16.8068-1.2929a57.7571,57.7571,0,0,0,6.4642-18.1c.8589-4.8778,3.5547-20.19-5.1713-34.9065a45.059,45.059,0,0,0-11.6355-12.9283" transform="translate(-579.7582 -34.5155)"></path><path class="cls-9" d="M789.9059,1010.7023a72.5891,72.5891,0,0,1-46.5421-36.1994c-3.0079,1.7567-8.1347,5.4025-10.3427,11.6355-3.98,11.2354,4.4387,22.65,7.757,27.1495,11.8365,16.0491,29.6165,20.843,53.0063,27.1495,13.6737,3.6869,29.3035,7.7585,50.42,6.4642a135.0068,135.0068,0,0,0,37.4922-7.757,119.0275,119.0275,0,0,0,31.028,11.6355,120.54,120.54,0,0,0,51.7134,0,96.0965,96.0965,0,0,0,43.9563-15.514,29.2913,29.2913,0,0,1-6.4641-7.757,29.7076,29.7076,0,0,1-3.8785-14.2212,49.5833,49.5833,0,0,1-33.6137,14.2212l9.05,7.757q-3.232,2.5857-6.4642,5.1713l-82.7413-25.8566a520.7467,520.7467,0,0,1-107.3053-90.4984,136.1681,136.1681,0,0,0,41.3707,81.4485,89.0545,89.0545,0,0,1-20.6853-7.757,89.9992,89.9992,0,0,1-27.15-21.9782,52.07,52.07,0,0,0,19.3926,34.9066Z" transform="translate(-579.7582 -34.5155)"></path><path class="cls-10" d="M859.7189,834.8768a117.7373,117.7373,0,0,0,49.1277,2.5857c5.8335-.9548,28.6471-5.16,59.47-28.4424,38.6934-29.2265,60.5708-66.2791,72.3987-91.7912a221.0826,221.0826,0,0,1-14.2212,58.1775l10.3427,2.5857a118.836,118.836,0,0,1-7.757,23.271c-14.6384,32.2856-40.3305,50.087-54.299,58.1775-.8551,3.5854-1.2069,8.2335,1.2928,11.6356,5.0713,6.9021,18.9712,4.7174,27.1495,1.2928,11-4.6062,15.7822-13.1858,27.15-32.3209,5.4539-9.18,14.27-23.899,25.8567-42.6635l24.5639-11.6355a282.9041,282.9041,0,0,0-55.5919,102.1339l-58.1776,37.4922a37.5771,37.5771,0,0,1,3.8786-16.8069c2.4419-4.8923,6.3177-12.6574,14.2211-14.2211,6.612-1.3083,12.3,2.4644,14.2212,3.8785-2.95-2.9621-7.7488-6.7859-14.2212-7.757-11.0852-1.6633-20.3752,6.047-27.1495,11.6355-15.1576,12.5043-30.9073,25.2645-49.1277,40.0778a56.9531,56.9531,0,0,1,2.5857-25.8566c6.5372-18.8909,21.2652-28.33,25.8567-31.0281a331.3023,331.3023,0,0,1-77.57-50.42Z" transform="translate(-579.7582 -34.5155)"></path><path class="cls-11" d="M866.1831,607.338a182.2662,182.2662,0,0,0,131.8691,14.2211,101.7074,101.7074,0,0,1-2.5857,45.2492c-11.7392,39.937-45.0124,59.0381-53.0062,63.3489-8.5324,4.3337-13.1918,8.9442-15.514,11.6355-1.4238,1.65-2.49,3.1824-2.5857,5.1714-.1609,3.3374,2.5357,5.3511,5.1714,9.05,0,0,2.7879,3.9125,5.1713,11.6355.8869,2.8739,2.8284,11.34-3.8785,24.5639a86.6719,86.6719,0,0,1-62.0561,19.3925,49.3245,49.3245,0,0,1,1.2929-62.0561,41.4453,41.4453,0,0,1-10.3427-9.05c-11.6022-14.2846-10.0362-32.7307-9.05-42.6635,1.9219-19.3551,8.0409-22.9183,12.9283-42.6636C866.2474,644.4669,868.6814,628.4134,866.1831,607.338Z" transform="translate(-579.7582 -34.5155)"></path><path class="cls-11" d="M672.2579,665.5155c.6907,1.2414,6.3533,11.8379,1.2929,23.271a26.2073,26.2073,0,0,1-12.9284,12.9284,96.3256,96.3256,0,0,0,19.3925,25.8566C704.8564,751,744.4632,762.4594,774.3918,749.55c5.7327-2.4727,17.9429-7.74,21.9782-19.3925,4.33-12.5042-3.24-25.1789-9.05-34.9065-10.332-17.2992-24.2372-26.6238-34.9065-33.6137a151.34,151.34,0,0,0-38.7851-18.1A38.9757,38.9757,0,0,1,694.2361,662.93,38.3066,38.3066,0,0,1,672.2579,665.5155Z" transform="translate(-579.7582 -34.5155)"></path><path class="cls-12" d="M855.84,50.1264a104.97,104.97,0,0,0-31.028,21.9782c-13.0554,13.52-16.2807,24.556-28.4424,43.9563-13.2268,21.1-20.63,25.9413-31.028,40.0779-25.0648,34.0768-30.2572,71.4863-33.6137,95.67a258.7348,258.7348,0,0,0,9.05,111.1838,177.5782,177.5782,0,0,1,10.3427,36.1993c2.7142,15.654,2.4394,26.7274,2.5857,37.4922.1689,12.4268.6508,47.8967,6.4642,68.52,4.3017,15.2608,16.6583,40.6128,59.47,64.6418q7.1107,3.8784,14.2212,7.757a166.7768,166.7768,0,0,1-23.271-3.8785,157.0521,157.0521,0,0,1-27.1495-9.05c-25.3945-11.8269-38.69-38.5219-47.8349-56.8847-10.0772-20.2338-5.6639-19.5133-18.1-47.8349-9.0447-20.5986-18.1833-36.4756-28.4423-54.299-13.9643-24.2607-19.9516-31.8408-27.1495-50.4205a239.5354,239.5354,0,0,1-9.05-29.7352c-13.3908-59.63,15.7554-127.8249,18.1-133.162,7.2831-16.5809,25.5407-56.863,68.52-91.7912A237.2734,237.2734,0,0,1,855.84,50.1264" transform="translate(-579.7582 -34.5155)"></path><path class="cls-11" d="M855.84,50.1264a248.2363,248.2363,0,0,1,59.47-5.1714c22.0024.7527,58.1665,1.99,95.67,23.2711,46.23,26.2335,66.8187,67.22,74.9844,84.0342,15.5479,32.0149,20.828,64.7079,21.9782,84.0342,1.8149,30.4952,1.2928,45.2491,1.2928,45.2492-.5557,15.7054-1.7822,20.1755,0,29.7352,2.7617,14.8134,9.0371,21.9438,16.8069,36.1994,8.1995,15.0438,15.3614,33.0654,18.1,46.542,8.6121,42.3834-18.3016,80.2987-21.9781,85.3271-16.6382,22.7561-42.7313,40.6578-58.1776,43.9563a50.6048,50.6048,0,0,0-16.8068,6.4642c-6.6294,4.0673-10.3822,8.5956-14.2212,12.9283-9.3469,10.5491-16.1392,18.2149-23.271,23.2711-18.9353,13.4242-42.7,10.1787-49.1277,9.05a71.3617,71.3617,0,0,1-21.9782-7.757,148.4515,148.4515,0,0,1-32.3209,12.9283c-5.756,1.5466-32.2852,8.2989-67.2273,2.5857-5.3193-.87-20.2563-3.312-33.6137-9.05-29.0841-12.4934-48.16-39.5283-64.6418-76.2773-30.2818-67.5193-75.7352-168.8665-36.1993-285.7163,8.6887-25.68,26.3689-75.8551,74.9844-117.648A239.439,239.439,0,0,1,855.84,50.1264Z" transform="translate(-579.7582 -34.5155)"></path><path class="cls-11" d="M611.4947,681.03a45.576,45.576,0,0,1-10.3427-14.2212c-1.8728-4.0566-3.2769-7.098-2.5856-10.3426,1.2759-5.99,9.2073-10.3968,19.3925-11.6355a71.7,71.7,0,0,0-6.4642,36.1993Z" transform="translate(-579.7582 -34.5155)"></path><path class="cls-11" d="M623.13,639.6588a14.808,14.808,0,0,1,5.1714-19.3925c-.6109-.2558-8.5221-3.4134-15.514,1.2928a16.7129,16.7129,0,0,0-6.4642,18.1Z" transform="translate(-579.7582 -34.5155)"></path><path class="cls-11" d="M616.6661,615.095a46.09,46.09,0,0,0,1.2928-10.3427,49.6239,49.6239,0,0,0-5.1713-21.9782,59.2175,59.2175,0,0,0-11.6356-16.8068,9.7536,9.7536,0,0,0-7.757-1.2929c-4.3608,1.3331-6.1558,5.9788-6.4641,9.05a11.6516,11.6516,0,0,0,1.2928,6.4641Z" transform="translate(-579.7582 -34.5155)"></path><path class="cls-11" d="M638.6442,596.9953l-.3283-.4147c-2.1868-2.7617-21.9915-27.7782-24.2355-30.6133-.1723-.3935-1.4144-3.3338,0-5.1714,1.3383-1.7387,4.2189-1.4036,5.1713-1.2928,8.5841.9987,15.5987,14.9567,18.1,25.8567A51.2826,51.2826,0,0,1,638.6442,596.9953Z" transform="translate(-579.7582 -34.5155)"></path><path class="cls-11" d="M695.5289,602.1666a33.891,33.891,0,0,0-12.9283,3.8785c-9.5619,5.171-19.4125,16.6914-18.1,27.1495.3286,2.6175,1.338,5.0216,0,7.757-1.5807,3.2317-5.5757,5.1633-9.05,5.1714-6.2426.0145-11.3421-6.1806-12.9284-11.6355-2.41-8.2879,3.0042-15.8515,6.4642-20.6854,1.401-1.9572,9.2807-12.5848,23.271-15.514a31.116,31.116,0,0,1,14.2212,0A30.0066,30.0066,0,0,1,695.5289,602.1666Z" transform="translate(-579.7582 -34.5155)"></path><path class="cls-11" d="M1221.7125,563.3816a29.9933,29.9933,0,0,0,11.6355-9.05c8.6986-11.32,5.6789-25.0125,5.1713-27.15a42.8041,42.8041,0,0,0,12.9284,9.05c4.6176,2.0792,13.8572,6.24,23.271,2.5856,1.4391-.5586,10.408-4.04,11.6355-11.6355.9572-5.9223-3.3564-10.8537-5.1713-12.9283-2.4165-2.7625-6.8458-6.612-21.9782-10.3427a138.86,138.86,0,0,0-27.1495-3.8785,30.9833,30.9833,0,0,0-10.3427,7.757c-6.8342,7.9226-7.3893,17.1559-7.757,23.271A59.4522,59.4522,0,0,0,1221.7125,563.3816Z" transform="translate(-579.7582 -34.5155)"></path><path class="cls-11" d="M1250.1549,494.8614a39.5449,39.5449,0,0,1,21.9781,6.4641,121.95,121.95,0,0,1,6.4642-19.3925c5.4374-12.619,10.4986-18.3424,9.05-27.1495-.2384-1.4487-1.2484-7.5882-5.1714-9.05-4.76-1.7737-10.9108,4.4221-14.2212,7.757-7.2745,7.3285-10.4173,15.3643-12.9283,21.9782A99.0274,99.0274,0,0,0,1250.1549,494.8614Z" transform="translate(-579.7582 -34.5155)"></path><path class="cls-11" d="M1282.4757,506.4969c3.0118-12.5862,6.1206-23.841,9.05-33.6137,2.9865-9.964,6.0486-19.2632,14.2211-27.1495,2.3771-2.2939,6.7213-6.39,10.3427-5.1714,4.1982,1.4124,4.9326,9.1279,5.1713,11.6355,1.0405,10.931-4.1005,19.7608-7.757,25.8567a70.7142,70.7142,0,0,1-14.2211,16.8069A82.06,82.06,0,0,1,1282.4757,506.4969Z" transform="translate(-579.7582 -34.5155)"></path><path class="cls-11" d="M1312.2109,497.447c-6.3666.2827-9.7018,6.5522-10.3427,7.757-.7094,1.3336-2.9867,5.6143-1.2928,10.3427.2432.679,2.0483,5.4867,6.4642,6.4642a9.4787,9.4787,0,0,0,6.4641-1.2928c2.926-1.4823,4.4869-3.65,6.4642-6.4642,2.6556-3.78,3.9833-5.67,3.8785-7.757C1323.6169,501.93,1317.9583,497.1919,1312.2109,497.447Z" transform="translate(-579.7582 -34.5155)"></path><path class="cls-11" d="M1305.7467,541.4034a12.3927,12.3927,0,0,0,0,9.05,12.7546,12.7546,0,0,0,9.05,7.7571,12.34,12.34,0,0,0,5.1713,0l5.1713-9.05a14.4538,14.4538,0,0,1,1.2929,9.05,47.0513,47.0513,0,0,0,3.8785-10.3427c1.4852-6.0414,2.616-10.641,0-14.2212-2.6621-3.6432-7.4785-3.87-7.757-3.8785-3.2414-.1034-5.6085,1.6548-10.3427,5.1713C1308.5915,537.6277,1306.7819,538.9719,1305.7467,541.4034Z" transform="translate(-579.7582 -34.5155)"></path><path class="cls-13" d="M939.8746,395.3131c2.7721,2.5292.11,6.0871,2.5857,10.3427,2.1637,3.7188,5.2774,2.8588,6.4642,6.4642a9.37,9.37,0,0,1-1.2929,7.757,7.6106,7.6106,0,0,1-2.5856,2.5857c-3.8332,2.1118-9.7156-.74-12.9284-3.8785-4.7068-4.5984-5.536-11.6226-3.8785-16.8069.4821-1.5077,2.217-6.9342,6.4642-7.757A6.4623,6.4623,0,0,1,939.8746,395.3131Z" transform="translate(-579.7582 -34.5155)"></path><path class="cls-13" d="M926.9463,418.5842h0c6.0942,3.5724,15.173,7.4937,24.5638,5.1713,14.831-3.6678,22.1155-20.85,24.5639-19.3925,1.6567.9862-.8086,9.3712-5.1713,15.514A27.5894,27.5894,0,0,1,957.9743,430.22c-12.6274,4.6735-23.8978-2.6122-25.8567-3.8785-3.7771-2.4418-8.39-6.6784-7.757-7.757.2781-.4737,1.5258-.2669,2.5857,0" transform="translate(-579.7582 -34.5155)"></path><path class="cls-13" d="M924.3606,481.933q-1.2929,2.5857-2.5857,5.1714a12.934,12.934,0,0,1,3.8786-16.8069,5.5686,5.5686,0,0,0,0,3.8785c3.2352,7.4992,28.7181,5.1415,46.542-1.2928a88.9751,88.9751,0,0,0,32.3208-20.6854l-3.8785-2.5856a14.4025,14.4025,0,0,1,3.8785,0c1.6992.2328,7.3,1.3164,10.3427,6.4641a13.7812,13.7812,0,0,1,1.2929,10.3427,5.2042,5.2042,0,0,1-3.8786,0c-2.2788-1.058-3.5639-4.2947-2.5856-7.757A88.349,88.349,0,0,1,992.8808,471.59a93.7107,93.7107,0,0,1-33.6137,11.6355A96.3423,96.3423,0,0,1,924.3606,481.933Z" transform="translate(-579.7582 -34.5155)"></path><path class="cls-13" d="M991.588,488.3972c-.7325.0048-.0584,3.77-2.5857,6.4642-2.3715,2.5279-4.8481,1.22-7.757,3.8785-2.0464,1.87-3.584,5.0436-2.5856,6.4641,1.0577,1.5051,4.6938.6608,6.4641,0a12.5794,12.5794,0,0,0,7.757-9.05C993.681,492.247,992.33,488.3924,991.588,488.3972Z" transform="translate(-579.7582 -34.5155)"></path><path class="cls-13" d="M751.1208,322.9144a46.9994,46.9994,0,0,1,14.2212-11.6355c6.6067-3.45,11.1608-3.63,12.9283-7.757,1.5228-3.5551.4257-8.75-2.5856-10.3427-2.4617-1.3016-5.4894.1819-7.757,1.2929-7.7275,3.7861-11.3806,11.0422-12.9284,14.2211A40.1645,40.1645,0,0,0,751.1208,322.9144Z" transform="translate(-579.7582 -34.5155)"></path><path class="cls-13" d="M1058.167,233.1386a46.9983,46.9983,0,0,0-18.3746-.022c-7.2994,1.5051-10.942,4.2445-14.9206,2.1652-3.4277-1.7914-5.8628-6.51-4.5366-9.6476,1.0841-2.5649,4.3677-3.33,6.8269-3.9032,8.3806-1.953,15.7988,1.3585,19.008,2.8427A40.1612,40.1612,0,0,1,1058.167,233.1386Z" transform="translate(-579.7582 -34.5155)"></path><path class="cls-14" d="M1025.2017,893.0543c-3.0938-.1275-6.8029,3.3626-14.2212,10.3427-2.2538,2.1208-4.0223,3.9495-5.1713,5.1713a28.3153,28.3153,0,0,0-9.05,0,33.675,33.675,0,0,0-10.3426,3.8786c-4.6778,2.7349-18.5636,12.9295-27.15,33.6136-5.1988,12.5245-5.6911,22.2375-6.4641,37.4922-.1836,3.6216-.8966,20.8891,6.4641,32.3209a11.4872,11.4872,0,0,0,3.8785,3.8785c5.7346,3.3492,15.1044,1.3143,20.6854-3.8785,6.1619-5.7332,6.2719-13.9824,11.6355-15.514a6.0428,6.0428,0,0,1,3.8785,0c2.1066.8179,2.2269,2.6286,3.8785,3.8785,2.5637,1.94,7.913,1.8449,10.3427-1.2928,2.3649-3.0542,1.1518-7.9423-1.2929-10.3427,0,0-1.9063-1.8719-14.2211-2.5857h0c.0008,0,1.31-4.3495,3.8785-6.4642a9.8546,9.8546,0,0,1,9.05-1.2928c3.4923,1.2244,3.8367,3.847,6.4642,3.8785a5.7771,5.7771,0,0,0,5.1713-3.8785c1.1126-3.7268-3.1836-8.751-7.757-10.3427-6.0822-2.1167-14.2208,1.2924-14.2212,1.2929h0c-.0686.1323,2.397-7.8851,6.4642-10.3427,2.181-1.3179,6.2028-1.871,14.2212,2.5857,1.5346.4352,3.3422.7633,3.8785,0,.8114-1.1552-1.5378-4.4551-3.8785-6.4642a16.8822,16.8822,0,0,0-11.6355-3.8785,30.9759,30.9759,0,0,0-9.05,2.5857h0a26.2065,26.2065,0,0,1,1.2929-5.1714c1.5913-3.4987,7.0517-5.6726,11.6355-5.1713,4.5555.4981,5.7161,3.3619,9.05,2.5856a7.3787,7.3787,0,0,0,5.1714-5.1713c.9163-3.4656-1.1628-7.3445-3.8785-9.05-6.7566-4.2427-18.1579,4.5267-19.3926,2.5856-.6854-1.0775,2.3852-4.4759,5.1714-6.4641,4.92-3.5111,10.5875-3.791,12.9283-3.8785,4.0062-.15,4.4238.6692,6.4642,0,5.4986-1.8035,7.5215-9.41,7.757-10.3427C1039.5188,906.9948,1032.1443,893.3405,1025.2017,893.0543Z" transform="translate(-579.7582 -34.5155)"></path><path class="cls-14" d="M1031.6659,965.4531a22.7223,22.7223,0,0,0-1.2929,7.757c.0647,5.1192,1.8993,6.0586,1.2929,9.05-1.0119,4.991-6.5435,4.4668-9.05,10.3427-1.7356,4.069.5591,5.16-1.2928,10.3427-.6173,1.7276-2.5525,7.1434-7.757,9.05a12.0491,12.0491,0,0,1-7.757,0,16.3563,16.3563,0,0,0,0,10.3427c2.5166,7.1423,9.5869,9.6237,11.6355,10.3426,8.1268,2.8523,18.78.9581,20.6853-3.8785,1.0643-2.7017-1.2937-4.5641,0-9.05,1.0232-3.5478,2.8141-3.478,3.8785-6.4642,2.4228-6.7971-4.3663-14.1455-2.5856-15.514.9924-.7627,3.6283,1.1147,3.8785,1.2928,3.4847,2.482,3.03,5.9338,5.1713,6.4642,2.2383.5545,3.6315-2.9952,6.4642-2.5856a4.83,4.83,0,0,1,3.8785,3.8785c.2863,3.4246-5.7991,4.1726-9.05,10.3426a14.1849,14.1849,0,0,0-1.2928,10.3427c1.2737,4.2965,5.2218,8.5756,10.3427,9.05,6.2835.5819,11.2327-4.852,12.9283-9.05,2.3324-5.7746.3922-13.8763,0-15.514-.1717-.717-.5637-2.2173,0-2.5857.8418-.55,3.5279,1.6122,5.1714,3.8785a14.9873,14.9873,0,0,1,2.5856,11.6355c-.93,4.2836-3.5641,6.0505-2.5856,7.757,1.0237,1.7853,4.7613,1.3416,5.1713,1.2929,4.6458-.5517,8.753-4.5517,10.3427-9.05,2.56-7.2435-2.1577-13.6587-2.5857-14.2211.1466-1.124.4891-2.257,1.2928-2.5857,1.6435-.6721,4.87,2.16,6.4642,5.1713,3.8992,7.3657-1.7311,16.2477,1.2928,18.1.5273.3229,1.2135.2153,2.5857,0,3.1857-.5,7.8594-2.65,9.05-6.4642.8479-2.717-.2966-5.69-2.5857-11.6355-1.0872-2.8238-1.9836-4.4581-1.2928-5.1713.8665-.8947,3.6089.302,5.1713,1.2928a13.909,13.909,0,0,1,5.1713,6.4642c1.6123,3.9737.5688,6.0411,2.5857,7.757a6.3451,6.3451,0,0,0,3.8785,1.2928c.2942.0193,4.83.2559,6.4642-2.5856.9832-1.7094.4243-3.6771,0-5.1714-.9938-3.4987-2.9009-4.0428-3.8785-7.757-.29-1.103-.8581-3.2593,0-3.8785.89-.6421,2.4876.9633,6.4641,2.5857,2.8835,1.1765,4.5734,1.839,6.4642,1.2928,1.76-.5084,3.6683-2.0564,3.8785-3.8785.3215-2.786-3.4308-5.318-5.1713-6.4642-23.2742-15.3258-34.9113-22.9889-42.6636-25.8566-9.8809-3.6553-26.7191-9.7018-49.1277-9.05A116.0292,116.0292,0,0,0,1031.6659,965.4531Z" transform="translate(-579.7582 -34.5155)"></path><path class="cls-15" d="M978.66,929.2537c-1.7539,4.4466-3.8036,10.7008-6.4642,31.028-2.5466,19.4561-2,23.8948,0,28.4424.5751,1.3077,5.1857,11.4966,11.6355,11.6355,3.4769.0749,4.3634-2.8382,9.05-2.5857,2.47.1331,6.7938,1.1887,9.05,3.8785a7.06,7.06,0,0,0,1.2928,1.2929,6.0967,6.0967,0,0,0,5.1713,1.2928,5.525,5.525,0,0,0,3.8785-3.8785,6.0347,6.0347,0,0,0-1.2928-5.1714c-.9448-1.2307-2.0192-1.7373-3.8785-2.5856-.7847-.3581-7.1418-3.2588-11.0274-2.5233-.1628.0309-.4684.0959-.6081-.0624-.55-.6228,1.6813-4.4644,5.1713-6.4642.5743-.329,4.0729-2.3337,7.757-1.2928a24.06,24.06,0,0,1,5.1714,2.5857c1.52.9027,1.8274,1.2188,2.5857,1.2928,2.0738.2024,4.5478-1.6964,5.1713-3.8785,1.0428-3.65-3.32-7.2911-3.8785-7.757-6.4456-5.3793-16.6857-1.8078-18.1-1.2928a12.12,12.12,0,0,1,5.1713-9.05c2.8224-1.8816,7.14-2.885,10.3427-1.2928,1.9977.993,2.9821,2.7079,5.1714,2.5857.1528-.0086,2.03-.1364,2.5856-1.2929.881-1.8337-2.2407-4.8393-2.5856-5.1713-4.5388-4.37-11.22-3.913-11.6356-3.8785,0,0-1.17.097-9.05,2.5857-.0911-3.8945-.1682-4.506,0-5.1714,1.0574-4.1824,7.039-5.2579,10.3427-5.1713a27.2571,27.2571,0,0,1,6.4642,1.2928c3.3882.9536,3.8873,1.5381,5.1713,1.2928,2.7361-.5226,5.2849-4.0967,5.1713-7.757-.126-4.0619-3.4919-6.977-6.4641-7.757a8.8186,8.8186,0,0,0-3.8785,0c-3.7983.5759-6.5512,2.6175-11.6356,3.8785-.5359.133-1.0968.257-1.2928,0-.5561-.7291,2.0636-4.2146,5.1713-6.4641,5.015-3.63,11.0164-3.8358,12.9284-3.8785,3.1077-.0694,3.39.4864,5.1713,0,4.72-1.29,7.1155-6.3906,7.757-7.757,4.1612-8.8628-.5281-17.9663-1.2928-19.3926-1.5662-2.9209-3.832-7.1468-7.757-7.757-3.3075-.5141-6.1285,1.805-11.6355,6.4642a76.7515,76.7515,0,0,0-9.05,9.05,20.505,20.505,0,0,0-3.8785,0,25.0644,25.0644,0,0,0-10.3426,3.8786C984.7437,916.1372,981.2508,922.6842,978.66,929.2537Z" transform="translate(-579.7582 -34.5155)"></path><path class="cls-16" d="M695.5289,427.634c-3.1845,1.58-8.1953,4.7321-10.3426,10.3427-2.86,7.4736.97,15.1041,3.8785,20.6853,12.6147,24.2037,18.02,29.2734,23.271,40.0779,7.8427,16.1382,1.7284,17.063,11.6355,50.4205,7.496,25.2391,12.7656,30.6669,18.1,33.6137,6.5911,3.6413,17.9352,6.0656,27.1495,0,7.5395-4.9631,9.7644-13.05,10.3427-15.514a140.5778,140.5778,0,0,1-32.3209-31.028c-10.3015-13.7418-14.628-24.9612-23.271-45.2492C717.6494,476.1432,708.1488,454.411,695.5289,427.634Z" transform="translate(-579.7582 -34.5155)"></path><path class="cls-16" d="M1160.9493,471.59c1.3209.8606,7.57,4.3761,14.2212,2.5856.8512-.2292,5.0193-1.4363,9.05-6.4641,8.4236-10.5081,6.9771-26.1417,6.4642-31.0281-3.4441-32.812-11.8686-45.2189-14.2212-65.9345-1.3476-11.8666-1.0323-29.3626,7.757-51.7134,1.2089-14.1174-6.3573-25.3284-15.514-27.15-6.4743-1.2876-12.2071,2.4244-14.2212,3.8785,7.2609,16.2108,14.78,38.7685,15.514,65.9345C1171.4209,414.3392,1146.7723,462.3531,1160.9493,471.59Z" transform="translate(-579.7582 -34.5155)"></path><path class="cls-17" d="M741.4246,973.8565a22.45,22.45,0,0,0-7.757,9.05c-4.1783,9.2115-.2028,18.5027,1.2928,21.9782,1.9406,4.51,6.35,12.1748,23.9174,22.6246a147.3819,147.3819,0,0,0,51.067,18.7461,153.1783,153.1783,0,0,0,42.0171.6464,175.7729,175.7729,0,0,0,36.1994-7.757,136.3754,136.3754,0,0,0,32.3208,11.6355c9.216,2.051,28.0792,6.0446,51.7134,1.2929a116.4245,116.4245,0,0,0,38.785-15.5141,29.4,29.4,0,0,0,11.6355,1.2929c2.25-.21,14.3175-1.337,20.6854-11.6355,4.7157-7.6266,4.6245-17.564,0-25.8567l3.8785,11.6355,10.3426-5.1713c-1.2057.5652-8.0874,3.9271-10.3426,11.6355-1.9644,6.714-.1613,15.8455,6.4641,19.3925,7.6619,4.1017,18.1269-1.2167,21.9782-9.05,4.2074-8.5571-.8411-17.3423-1.2928-18.1a48.562,48.562,0,0,1,3.8785,12.9283c1.4584,9.6138-.8849,14.2136,1.2928,15.514,3.5062,2.0938,16.1387-5.9139,16.8069-16.8068a17.9242,17.9242,0,0,0-3.8785-11.6355c2.416,2.3509,5.3547,6.0049,5.1713,10.3426-.2823,6.6787-7.7723,10.3975-6.4642,12.9284,1.1682,2.26,8.0608,1.0716,11.6355,0a25.6215,25.6215,0,0,0,7.7571-3.8785,12.758,12.758,0,0,0,5.1713-9.05,12.559,12.559,0,0,0-6.4642-11.6355,24.4149,24.4149,0,0,1,3.8785,7.757c1.4958,5.1737.3239,7.8554,2.5857,10.3427,2.2389,2.4621,5.85,2.543,7.757,2.5857,1.0623.0237,7.1915.161,10.3427-3.8785,3.1817-4.0789,2.4813-11.3317-2.5857-16.8069" transform="translate(-579.7582 -34.5155)"></path><path class="cls-17" d="M1179.6954,765.71a115.044,115.044,0,0,1,19.3925,25.8566c3.055,5.5732,11.1491,21.4568,14.2212,50.4206,3.0329,28.5946-.7989,51.3639-5.1714,76.2772-6.8686,39.1363-12.9281,41.4347-9.05,56.8847,2.7242,10.8523,9.3453,24.1846,5.1713,40.0779-1.4258,5.4293-3.55,9.02-6.4641,11.6355-5.5744,5.0027-12.7559,5.2827-21.9782,5.1713a361.7939,361.7939,0,0,1-38.785-2.5856" transform="translate(-579.7582 -34.5155)"></path><path class="cls-17" d="M1137.6783,1015.8736a24.7254,24.7254,0,0,0,7.757,2.5857,30.2885,30.2885,0,0,0,7.757,0c3.3924-.2783,7.7726-.6862,12.9283-1.2929.5857-18.018,1.9655-60.1055,2.5857-78.8629,1.2392-37.4822,1.4164-42.4018,1.2928-49.1277-.4576-24.915-4.7925-61.0328-23.271-106.0124" transform="translate(-579.7582 -34.5155)"></path><path class="cls-18" d="M1142.85,765.0637a46.9711,46.9711,0,0,1,11.6355,18.1" transform="translate(-579.7582 -34.5155)"></path><path class="cls-18" d="M1173.8776,801.2631a242.75,242.75,0,0,1,14.2212,50.42c3.917,23.51,5.3977,54.4815,5.1713,76.2773a164.507,164.507,0,0,0,1.2929,27.1495c1.4393,10.3718,3.2318,15.2072,5.1713,27.1495a218.5027,218.5027,0,0,1,2.5857,24.5639v10.3426" transform="translate(-579.7582 -34.5155)"></path><path class="cls-18" d="M826.1052,845.22c-.0537.373,6.6752,1.0109,16.8069,3.8785a136.9989,136.9989,0,0,1,28.4423,11.6355s19.4088,9.5882,42.6635,18.1a224.2492,224.2492,0,0,0,47.8349,11.6355c2.7771.4,6.2877,1.1508,6.4642,2.5856.1939,1.5777-3.7344,3.2417-5.1714,3.8785-12.6479,5.6063-24.3706,16.798-28.4423,20.6854-10.2912,9.8251-15.4368,14.7377-18.1,18.1-.8153,1.0293-3.5056,4.497-5.1713,3.8785-.963-.3576-1.1969-1.9375-1.2929-2.5857,0,0-.41-2.771,3.8785-10.3427a18.8046,18.8046,0,0,0-5.1713,7.757c-.9052,2.6419-1.9771,7.8327,0,9.05.6607.4067,1.4507.24,2.5857,0a11.8385,11.8385,0,0,0,5.1713-2.5857c9.8327-8.709,20.0651-16.9676,29.7352-25.8567,0,0,12.0962-11.1192,32.3209-20.6853a28.7587,28.7587,0,0,1,14.2211-2.5857c2.3642.2091,6.6237.6474,9.05,3.8785a8.2466,8.2466,0,0,1,1.2928,2.5857c-.5794.3251-1.4682.7989-2.5857,1.2928a37.056,37.056,0,0,1-10.3426,2.5857c-5.7753,1.9248-19.0778,11.053-28.4424,24.5638-12.0655,17.4076-14.4765,34.5962-15.514,42.6636-.8341,6.486-2.921,22.7136,2.5857,37.4922a102.0694,102.0694,0,0,0,10.3426,19.3925c1.5247,2.1886,2.892,3.9481,3.8785,5.1713a130.2482,130.2482,0,0,1-19.3925,0,144.4383,144.4383,0,0,1-23.271-3.8785c-20.6145-5.2384-37.7255-15.0918-46.542-20.6853a132.0593,132.0593,0,0,0,20.6853,14.2211,142.3522,142.3522,0,0,0,38.7851,14.2212,147.957,147.957,0,0,0,16.8068,2.5857,6.5638,6.5638,0,0,0,2.5857,11.6355l27.1495-1.2928c-8.86.5937-13.3923-1.336-15.514-2.5857-.7041-.4148-2.8069-1.6532-2.5857-2.5857.1779-.75,1.739-.7945,3.8785-1.2928,2.8611-.6664,6.9421-1.6169,7.757-3.8785.9767-2.71-2.9295-6.7706-3.8785-7.757-.5524-.5742-2.5853-2.5855-2.5857-2.5857h0s5.8011.0874,7.7571,0c6.1862-.2763,10.9621-3.9543,14.2211-6.4642a37.1356,37.1356,0,0,0,11.6355-15.514,69.2772,69.2772,0,0,1-14.2211,10.3427c-7.4587,4.077-14.4592,7.9036-20.6854,5.1713a13.9572,13.9572,0,0,1-6.4642-6.4641c-3.2913-6.8565-12.0768-27.477-6.4641-53.0062,1.464-6.659,6.7215-30.5728,28.4423-45.2492a63.4172,63.4172,0,0,1,20.6854-9.05,12.9723,12.9723,0,0,0,6.4641-1.2928c1.2787-.6341,4.5663-2.2645,5.1714-5.1714.6311-3.0317-1.9962-5.8161-3.8785-7.757a28.9052,28.9052,0,0,0-14.2212-7.757c-10.2-2.252-14.0724,1.1066-24.5638,1.2929-4.7866.0849-12.2409-2.0981-27.15-6.4642-7.2675-2.1283-17.6319-5.1888-31.028-10.3427-8.0793-3.1083-8.1255-3.4633-21.9782-9.05-12.7152-5.1278-19.0728-7.6917-23.271-9.05C845.695,844.637,826.1961,844.5886,826.1052,845.22Z" transform="translate(-579.7582 -34.5155)"></path><path class="cls-18" d="M813.1769,984.8456A126.8646,126.8646,0,0,1,791.1987,955.11a125.167,125.167,0,0,1-6.4642-14.2212c7.8064,10.2975,14.8832,18.9813,20.6854,25.8567,10.5375,12.4868,25.2036,29.7453,46.542,49.1277,9.5328,8.659,18.0247,15.5868,24.5638,20.6853a39.544,39.544,0,0,1-21.9781,6.4642,205.5938,205.5938,0,0,1-56.8847-40.0778A203.3021,203.3021,0,0,1,773.099,973.21,141.5341,141.5341,0,0,0,787.32,997.7739a149.3281,149.3281,0,0,0,32.3208,32.3209,173.2569,173.2569,0,0,0,21.9782,14.2211,78.8587,78.8587,0,0,1-28.4423,0,58.01,58.01,0,0,0,15.514,5.1714c4.5085.8173,10.7484,1.387,20.6853,0,16.3451-2.2814,30.5394-8.16,40.0779-12.9284-5.083-3.5322-12.3262-8.7615-20.6854-15.514-5.7684-4.66-21.7193-17.8411-49.1277-47.8348-11.702-12.8059-26.4238-29.6957-42.6635-50.4206a76.9572,76.9572,0,0,0,2.5857,15.514C786.391,963.16,804.1372,978.2546,813.1769,984.8456Z" transform="translate(-579.7582 -34.5155)"></path><path class="cls-18" d="M815.7625,830.9983a93.5015,93.5015,0,0,1,19.3926,1.2928c18.6962,3.2476,33.0091,11.719,54.299,24.5639,4.4106,2.661,7.986,4.9387,10.3427,6.4641a42.7086,42.7086,0,0,0,15.514,7.7571c7.4919,1.9406,13.5553,1.1973,21.9782,0,19.1323-2.72,28.6985-4.08,32.3208-5.1714,27.8287-8.3864,45.7514-39.2928,50.4206-47.8349a120.746,120.746,0,0,1-29.7352,29.7352c-6.5949,4.5915-15.3224,10.5561-28.4424,14.2212a83.4026,83.4026,0,0,1-31.028,2.5857,164.3232,164.3232,0,0,0,24.5638-15.514c14.083-10.7518,25.9388-23.4446,40.0779-43.9564,23.0682-33.4653,38.4839-67.8249,47.8349-91.7912a548.7071,548.7071,0,0,1-42.6636,71.1059c-30.6459,43.2417-51.2247,58.7917-59.47,64.6417a199.4253,199.4253,0,0,1-23.2711,14.2211,302.631,302.631,0,0,0-29.7351-18.1c-8.9911-4.7879-25.7594-13.7171-41.3707-18.1-11.3594-3.1889-37.7267-8.3558-74.9844,5.1713l16.8068,1.2929Z" transform="translate(-579.7582 -34.5155)"></path><path class="cls-18" d="M1190.6845,776.6992a135.6242,135.6242,0,0,0-21.9782-15.514c-11.22-6.3518-20.5772-11.6486-32.3209-12.9283-26.6809-2.9072-48.4453,16.8-55.5918,23.271-9.44,8.5475-14.9159,16.9765-20.6854,25.8567-4.047,6.2291-10.51,18.4587-23.271,42.6635-3.4145,6.4767-8.0651,15.3331-16.8068,23.271-5.0942,4.6258-9.99,7.4975-15.5141,9.05a34.9726,34.9726,0,0,1-9.05,1.2928,69.93,69.93,0,0,0,15.514-10.3427c7.5883-6.6938,12.007-13.5858,16.8069-21.9781,10.4014-18.1864,10.4859-22.2493,18.1-36.1994,5.7061-10.4548,12.8894-23.6164,25.8567-36.1994a113.1028,113.1028,0,0,1,29.7352-20.6853,70.5712,70.5712,0,0,0,7.757-20.6854c3.34-16.5642-1.3212-25.496,0-42.6635a89.2142,89.2142,0,0,1,7.757-29.7352,219.7591,219.7591,0,0,0-2.5856,28.4424c-.3725,14.8525,1.0027,21.09,0,33.6137a128.4512,128.4512,0,0,1-5.1714,27.15,9.0052,9.0052,0,0,0,3.8785-1.2928c4.25-2.674,4.8862-8.591,5.1714-11.6356a213.836,213.836,0,0,0,1.2928-27.1495,93.55,93.55,0,0,1,3.8785-27.15c-.417,11.3443-.2489,20.6038,0,27.15.3153,8.292.8412,14.354,0,23.271a110.6881,110.6881,0,0,1-2.5857,15.5141,43.4283,43.4283,0,0,1,14.2212-1.2929,98.6069,98.6069,0,0,0,5.1713-21.9782c1.5021-12.95-.3662-19.8081-2.5856-37.4922-3.6363-28.9733-5.4543-43.46-3.8785-55.5918,1.2548-9.66,3.5987-18.2916,0-28.4424a36.114,36.114,0,0,0-11.6355-16.8068,32.1244,32.1244,0,0,0-3.8785-2.5857l-1.2929,1.2928a75.8931,75.8931,0,0,1,5.1714,21.9782c1.7219,21.3091-6.1585,37.8263-10.3427,45.2492.3846-4.0459.8817-9.8354,1.2928-16.8068,1.0684-18.1161,1.6027-27.1742,0-34.9066-1.38-6.66-5.0807-17.75-16.8068-29.7351-.6567,4.22-1.6486,10.9944-2.5857,19.3925-1.2264,10.99-1.4363,16.4914-2.5857,29.7352-.6243,7.194-1.4348,16.5331-2.5856,25.8566-1.1322,9.1724-3.0479,22.0085-6.4642,37.4922a68.9494,68.9494,0,0,1-1.2928-16.8068c.43-9.22,2.5462-13.9246,3.8785-21.9782a81.68,81.68,0,0,0,0-25.8567q-8.375,20.7008-16.8069,41.3707-5.803,14.2255-11.6355,28.4424c.4839-4.14,1.2736-9.9375,2.5857-16.8069a230.0127,230.0127,0,0,1,12.9283-43.9563c6.5961-15.9584,8.4077-14.7011,11.6355-24.5639,5.1842-15.84,4.2-30.3554,2.5857-40.0778l-14.2212,7.757c2.5563-6.9737,8.2523-11.5869,14.2212-11.6355a13.429,13.429,0,0,1,7.757,2.5856,25.1664,25.1664,0,0,1,15.514,14.2212,22.12,22.12,0,0,1,10.3427,0c6.7861,1.6883,10.8024,6.3632,14.2212,10.3427a45.25,45.25,0,0,1,7.757,12.9283,227.5014,227.5014,0,0,0-2.5857,33.6137c-.0219,7.9028.377,12.7431,3.8785,51.7134,1.85,20.5914,2.5065,27.7843,1.2928,38.785a129.2257,129.2257,0,0,1-5.1713,24.5639,74.8887,74.8887,0,0,1,40.0779,18.1Z" transform="translate(-579.7582 -34.5155)"></path><path class="cls-18" d="M1230.7623,578.8956a27.3348,27.3348,0,0,1-12.9283-6.4642c-1.4292-1.3188-6.414-6.2345-9.05-21.9782-1.9966-11.9246-4.5475-27.1605,3.8785-41.3706,2.0953-3.5337,5.6413-9.3364,12.9283-12.9284a29.2945,29.2945,0,0,1,16.8069-2.5857,104.7241,104.7241,0,0,1,45.2492,16.8069c1.05,1.0881,8.0469,8.57,6.4641,18.1-1.8144,10.9248-13.3985,15.47-16.8068,16.8068a29.16,29.16,0,0,1-18.1,1.2928c-13.023-3.4072-18.5978-15.0711-19.3925-16.8068,4.9232,2.2049,8.9326,3.9795,11.6355,5.1713,10.0349,4.4251,12.1694,5.2755,15.514,5.1714,4.7864-.149,8.444-2.1406,11.6355-3.8785,3.264-1.7774,5.9458-3.2376,7.757-6.4642.4167-.7421,2.7143-4.8352,1.2929-9.05-.9872-2.9266-3.3327-4.6226-6.4642-6.4642-5.4944-3.2312-11.2509-5.6417-27.1495-10.3427-1.2182-.36-5.1135-1.5025-10.3427-2.5857-5.4726-1.1336-8.2516-1.6922-10.3427-1.2928-5.7548,1.0992-9.1631,6.4564-11.6355,10.3427-.8918,1.4019-4.99,8.0367-6.4642,19.3925a62.38,62.38,0,0,0,3.8785,31.028A60.0621,60.0621,0,0,0,1230.7623,578.8956Z" transform="translate(-579.7582 -34.5155)"></path><path class="cls-18" d="M1326.4321,550.4532a22.878,22.878,0,0,1-3.8785,15.5141,19.0192,19.0192,0,0,1-10.3427,7.757c-.5309.1489-9.9,2.6051-16.8068-3.8785-6.1849-5.8058-5.3524-14.0456-5.1714-15.514.8682-7.04,5.6229-11.3527,11.6355-16.8069a69.9523,69.9523,0,0,1,20.6854-12.9283q.6465,1.9392,1.2928,3.8785a75.158,75.158,0,0,0-14.2212,7.757c-6.0609,4.2214-9.62,6.7711-11.6355,11.6355-.7023,1.6954-3.2581,7.8649,0,12.9283,2.7839,4.3263,8,5.03,9.05,5.1714a15.5236,15.5236,0,0,0,10.3426-2.5857C1324.0361,559.3292,1325.9766,552.3252,1326.4321,550.4532Z" transform="translate(-579.7582 -34.5155)"></path><path class="cls-18" d="M1290.2327,457.3692h0l5.1714,1.2928q-7.1106,22.6247-14.2212,45.2492l-3.8785-1.2928q6.4642-22.6247,12.9283-45.2492" transform="translate(-579.7582 -34.5155)"></path><path class="cls-18" d="M1287.6471,507.79a4.11,4.11,0,0,1,2.5856,1.2929s.6741.7855,1.2929,3.8785h0a45.4842,45.4842,0,0,1,6.4641-9.05,21.4559,21.4559,0,0,1,12.9284-6.4642,19.7751,19.7751,0,0,1,9.05,1.2929l4.8347,3.626a2.6151,2.6151,0,0,0,2.9223.2525,2.6857,2.6857,0,0,0,1.3033-2.4878s-.0041-.05-.01-.0979c-.0483-.3638-.5687-2.8155-3.8786-5.1713a23.9922,23.9922,0,0,0-11.6355-3.8785,24.6793,24.6793,0,0,0-11.6355,2.5856A31.2826,31.2826,0,0,0,1287.6471,507.79Z" transform="translate(-579.7582 -34.5155)"></path><path class="cls-18" d="M831.2765,797.3846a57.3664,57.3664,0,0,0,9.05-12.9283c5.0375-9.8719,5.8619-18.6762,6.4642-25.8567a91.1914,91.1914,0,0,0-1.2929-24.5639c-5.7374-18.24-3.8647-30.664-2.5856-36.1993,1.9763-8.5531,3.1633-13.69,6.4641-19.3926a46.5394,46.5394,0,0,0,5.1714-11.6355,43.28,43.28,0,0,0,1.2928-6.4641,35.7083,35.7083,0,0,1,1.2928,6.4641,40.7007,40.7007,0,0,1-2.5856,18.1c-2.1047,6.3281-6.6351,19.95-5.1714,33.6137.4409,4.1154,1.4658,12.6478,7.757,20.6854A36.7891,36.7891,0,0,0,870.0616,749.55a68.0477,68.0477,0,0,0-10.3427-1.2928c-2.304-.11-4.4663-.0951-6.4642,0a61.1733,61.1733,0,0,1,0,18.1c-1.7792,11.7042-6.7387,20.6493-10.3426,27.1495-1.5424,2.7818-2.9324,5.0037-3.8785,6.4642Z" transform="translate(-579.7582 -34.5155)"></path><path class="cls-18" d="M925.6535,743.0856a19.4772,19.4772,0,0,0,9.05,5.1713c6.8663,1.6153,13.16-1.42,20.6853-5.1713,8.5741-4.2747,9.0938-6.4729,14.2212-7.757,6.9854-1.75,13.5826.4364,18.1,2.5856l3.8785-5.1713a29.95,29.95,0,0,0-5.1713-2.5857,32.5667,32.5667,0,0,0-18.1-1.2928c-2.9162.6556-8.4083,3.8846-19.3925,10.3427-5.1043,3.0009-7.5741,4.5628-11.6355,5.1713A23.9446,23.9446,0,0,1,925.6535,743.0856Z" transform="translate(-579.7582 -34.5155)"></path><path class="cls-18" d="M992.8808,489.69c-.2407,3.66-1.4968,5.48-2.5856,6.4642-2.6873,2.4286-5.7265,1.0058-9.05,3.8785-1.533,1.3252-3.3009,3.7151-2.5856,5.1713s3.5822,1.311,3.8785,1.2929c2.1441-.131,3.6135-1.3054,5.1713-2.5857,2.0842-1.7129,4.1163-3.3829,5.1713-6.4642A12.4382,12.4382,0,0,0,992.8808,489.69Z" transform="translate(-579.7582 -34.5155)"></path><path class="cls-18" d="M926.9463,469.0047a3.4341,3.4341,0,0,0-1.2928,3.8785,2.7573,2.7573,0,0,0,1.2928,1.2928,94.48,94.48,0,0,0,28.4423,1.2929,82.731,82.731,0,0,0,33.6137-10.3427,78.9428,78.9428,0,0,0,16.8069-12.9284,6.1979,6.1979,0,0,0-1.2929-1.2928,10.4311,10.4311,0,0,0-2.5856-1.2928h0a48.7713,48.7713,0,0,1,5.1713,0,12.2284,12.2284,0,0,1,7.757,3.8785c.24.2674,4.3831,5.039,2.5857,10.3427a9.36,9.36,0,0,1-2.5857,3.8785,12.0529,12.0529,0,0,0-1.2928-5.1714,31.6569,31.6569,0,0,0-2.5857-3.8785h0c-9.864,7.4031-10.3426,7.7569-10.3427,7.757-10.0655,7.4419-21.5319,11.4481-25.8566,12.9284-9.978,3.4152-20.3337,6.96-33.6137,5.1713a56.2737,56.2737,0,0,1-14.2212-3.8785,6.6613,6.6613,0,0,0-1.2928,3.8785c.02,1.1686.4131,1.8073,0,2.5857a2.8134,2.8134,0,0,1-2.5857,1.2928c-2.1713-.1966-3.5169-3.6475-3.8785-5.1713C917.6155,476.5954,925.9662,469.7852,926.9463,469.0047Z" transform="translate(-579.7582 -34.5155)"></path><path class="cls-18" d="M930.33,423.51a.9306.9306,0,0,1,.999-1.5316,34.1578,34.1578,0,0,0,21.4737,1.7769c9.0379-2.3786,14.9264-8.3939,18.1-11.6355a49.4394,49.4394,0,0,0,5.5885-6.841.929.929,0,0,1,1.6893.6722,32.88,32.88,0,0,1-5.985,13.9258c-1.5888,2.1273-7.183,9.6175-16.8069,11.6355C946.7281,433.3285,937.4443,430.16,930.33,423.51Z" transform="translate(-579.7582 -34.5155)"></path><path class="cls-19" d="M943.7531,399.1916c.823,3.1054-.9522,4.0936,0,6.4642,1.0177,2.5336,3.2909,2.0164,5.1714,5.1713a8.8354,8.8354,0,0,1,1.2928,5.1714,8.3556,8.3556,0,0,1-3.8785,6.4642c-3.9262,2.272-8.7182-.39-10.3427-1.2929a18.33,18.33,0,0,1-9.05-16.8068c.2277-3.4581,1.7741-10.3383,6.4642-11.6355,3.0262-.8371,6.0319,1.0179,6.4641,1.2928A9.2571,9.2571,0,0,1,943.7531,399.1916Z" transform="translate(-579.7582 -34.5155)"></path><path class="cls-18" d="M769.2205,417.2913a14.12,14.12,0,0,0,5.1713,7.757,14.2945,14.2945,0,0,0,10.3427,2.5857,64.434,64.434,0,0,1,14.2212-23.271c3.6144-3.7739,14.372-14.6933,32.3208-18.1a59.1537,59.1537,0,0,1,31.0281,2.5857,12.9763,12.9763,0,0,0,5.1713-6.4642c2.3325-6.6737-2.2591-12.5259-2.5857-12.9284.28,3.1406-.4672,4.5161-1.2928,5.1714a9.5827,9.5827,0,0,1-3.8785,1.2928h0a32.1664,32.1664,0,0,0-6.4642-9.05,35.8791,35.8791,0,0,0-7.757-5.1714h0a84.3132,84.3132,0,0,1,5.1714,7.757,25.0848,25.0848,0,0,1,2.5856,9.05,43.2542,43.2542,0,0,0-11.6355-2.5857c-31.9682-2.5192-56.1182,32.49-59.47,37.4922a21.6361,21.6361,0,0,1-1.2928-5.1713,13.2023,13.2023,0,0,1-.0636-4.5772c.067-.3338.1306-.5619.0636-.5942-.2871-.1382-3.2459,3.1883-3.8785,7.757a13.5147,13.5147,0,0,0,1.2928,7.7571,14.4536,14.4536,0,0,1-9.05-1.2929Z" transform="translate(-579.7582 -34.5155)"></path><path class="cls-18" d="M992.8808,338.4284c-.5186.4428,2.5495,5.0272,6.4642,9.05,3.2565,3.3463,4.94,4.0857,6.4642,3.8785a5.46,5.46,0,0,0,2.5856-1.2929,12.3556,12.3556,0,0,0,3.8785-5.1713c1.5961-3.9322,13.0093-16.6857,28.4424-21.9782,12.8947-4.4219,30.9824-4.4538,38.785,1.2928,1.1415.8408,5.1947,4.1118,10.3427,3.8786a14.7605,14.7605,0,0,0,5.1713-1.2929,12.7457,12.7457,0,0,0,6.4642-5.1713,11.7029,11.7029,0,0,0,1.2928-7.757,9.2125,9.2125,0,0,0-2.5856,1.2928,16.7439,16.7439,0,0,0-2.5857,2.5857c-1.9056,2.121-2.0292,2.4052-2.5857,2.5856-1.4659.4754-3.0782-.6956-3.8785-1.2928-2.8645-2.1375-2.9816-4.5208-5.1713-7.757a19.9427,19.9427,0,0,0-5.1713-5.1713,23.3083,23.3083,0,0,1,3.8785,11.6355c-1.492-.65-3.7187-1.5829-6.4642-2.5857a109.5662,109.5662,0,0,0-12.9283-3.8785c-7.8618-1.7153-23.9192-1.2788-38.7851,7.757a58.766,58.766,0,0,0-19.3925,19.3925,13.9767,13.9767,0,0,1-2.5857-5.1713,14.8633,14.8633,0,0,1,1.2929-10.3427,26.3592,26.3592,0,0,0-3.8785,18.1,9.7044,9.7044,0,0,1-3.8785,0C994.8064,340.3282,993.2446,338.1179,992.8808,338.4284Z" transform="translate(-579.7582 -34.5155)"></path><path class="cls-18" d="M1061.4011,237.5874a55.1012,55.1012,0,0,0-14.2212-11.6356c-5.5341-3.14-12.0242-6.8231-19.3925-5.1713-1.0593.2375-8.1277,1.822-9.05,6.4642-.5684,2.861,1.3479,6.1286,3.8785,7.757,4.5007,2.896,9.5385-.2977,16.8069-1.2929C1044.4339,233.0228,1051.7974,233.2048,1061.4011,237.5874Z" transform="translate(-579.7582 -34.5155)"></path><path class="cls-18" d="M753.7065,325.5a34.4031,34.4031,0,0,1,10.3427-11.6355c6.6589-4.6127,12.102-4.5142,15.514-10.3427.6955-1.1881,2.7178-4.6428,1.2928-7.757-1.1566-2.5277-4.1041-3.7818-6.4642-3.8785-1.7535-.0719-3.993.4621-9.05,5.1713-6.2415,5.8124-9.9352,9.2522-11.6355,15.514A25.5071,25.5071,0,0,0,753.7065,325.5Z" transform="translate(-579.7582 -34.5155)"></path><path class="cls-20" d="M613.434,564.028a4.3755,4.3755,0,0,0-5.1714,0,3.9617,3.9617,0,0,0-1.2928,2.5857l31.028,38.785,5.1714-3.8785Z" transform="translate(-579.7582 -34.5155)"></path><path class="cls-20" d="M601.7985,650.6479a24.1631,24.1631,0,0,1,12.9283-6.4642c1.9042-.2931,9.8807-1.3919,16.8068,3.8785,1.525,1.16,9.6154,7.6643,7.7571,15.514-.0624.2633-1.4234,5.6214-6.4642,7.7571-5.0012,2.1189-11.4791.1567-15.514-5.1714.1535.7832,1.56,7.372,7.757,10.3427,6.7307,3.2264,13.1748-.6615,14.2212-1.2928.6417-.3872,6.7447-4.2085,7.757-11.6356.8124-5.9609-2.1781-10.4026-3.8785-12.9283-4.5916-6.82-11.3505-9.324-14.2212-10.3427a34.1981,34.1981,0,0,0-21.9782,0,14.8992,14.8992,0,0,0-5.1713,10.3427Z" transform="translate(-579.7582 -34.5155)"></path><path class="cls-20" d="M610.8483,623.4984a16.9979,16.9979,0,0,1,9.05-5.1714c6.5281-1.2644,13.5165,1.7925,18.1,7.7571a5.0335,5.0335,0,0,0,0,6.4641,4.9485,4.9485,0,0,0,5.1714,1.2929q.6463-5.1714,1.2928-10.3427a25.7216,25.7216,0,0,0-7.757-7.757,23.2094,23.2094,0,0,0-15.514-3.8785A22.8459,22.8459,0,0,0,606.97,619.62Z" transform="translate(-579.7582 -34.5155)"></path><path class="cls-20" d="M712.9822,618.327c-1.0644-2.7109-5.8358-13.96-18.1-19.3925-15.198-6.7323-29.41,1.0017-32.3208,2.5857a38.4915,38.4915,0,0,0-16.8069,18.1c-2.0788,4.85-5.5768,13.01-1.2928,19.3925,3.2718,4.8741,9.5137,6.716,14.2212,6.4642,8.2243-.44,13.5323-7.2508,17.4532-12.282a43.4964,43.4964,0,0,0,6.4642-11.6355,23.2194,23.2194,0,0,1-7.757,24.5639c.3858.9249,3.181,7.7456,1.2928,9.05-1.13.78-3.9442-.4082-5.1713-2.5856a5.7236,5.7236,0,0,1,0-5.1714,22.0118,22.0118,0,0,1-5.1713,3.8785,19.5763,19.5763,0,0,1-9.05,2.5857,19.2094,19.2094,0,0,1-12.9283-5.1713c-4.706-4.3287-5.8434-9.75-6.4642-12.9284-2.0794-10.6474,1.5247-22.5471,9.05-31.028,9.8164-11.0631,22.9-12.4711,27.15-12.9284,5.4381-.5851,15.9717-1.7187,25.8567,5.1714C709.8431,604.2692,712.4205,615.5121,712.9822,618.327Z" transform="translate(-579.7582 -34.5155)"></path></svg>