<svg width="900" height="620" viewBox="0 0 900 620" fill="none" xmlns="http://www.w3.org/2000/svg">
  <defs>
    <linearGradient id="bg" x1="80" y1="50" x2="820" y2="580" gradientUnits="userSpaceOnUse">
      <stop stop-color="#FFF7ED"/>
      <stop offset="1" stop-color="#FED7AA"/>
    </linearGradient>
  </defs>
  <rect width="900" height="620" rx="42" fill="url(#bg)"/>
  <rect x="70" y="80" width="760" height="460" rx="32" fill="white" stroke="#FDBA74"/>
  <rect x="110" y="120" width="310" height="220" rx="24" fill="#FFF7ED"/>
  <path d="M146 228C170 172 222 138 286 138C350 138 402 172 426 228" stroke="#F97316" stroke-width="12" stroke-linecap="round"/>
  <circle cx="200" cy="228" r="18" fill="#F97316" fill-opacity="0.24"/>
  <circle cx="286" cy="188" r="22" fill="#F97316" fill-opacity="0.2"/>
  <circle cx="372" cy="228" r="18" fill="#F97316" fill-opacity="0.24"/>
  <rect x="460" y="120" width="300" height="70" rx="18" fill="#FFF7ED"/>
  <rect x="460" y="210" width="300" height="70" rx="18" fill="#FFF7ED"/>
  <rect x="460" y="300" width="300" height="70" rx="18" fill="#FFF7ED"/>
  <rect x="110" y="382" width="650" height="98" rx="24" fill="#FFFBEB"/>
  <rect x="134" y="410" width="180" height="14" rx="7" fill="#FDBA74"/>
  <rect x="134" y="436" width="230" height="10" rx="5" fill="#FED7AA"/>
</svg>
