<svg width="900" height="620" viewBox="0 0 900 620" fill="none" xmlns="http://www.w3.org/2000/svg">
  <defs>
    <linearGradient id="bg" x1="80" y1="40" x2="820" y2="580" gradientUnits="userSpaceOnUse">
      <stop stop-color="#ECFDF5"/>
      <stop offset="1" stop-color="#D1FAE5"/>
    </linearGradient>
    <linearGradient id="panel" x1="0" y1="0" x2="1" y2="1">
      <stop stop-color="#FFFFFF"/>
      <stop offset="1" stop-color="#F8FAFC"/>
    </linearGradient>
  </defs>
  <rect width="900" height="620" rx="42" fill="url(#bg)"/>
  <rect x="70" y="80" width="760" height="460" rx="32" fill="url(#panel)" stroke="#A7F3D0"/>
  <rect x="110" y="120" width="160" height="12" rx="6" fill="#A7F3D0"/>
  <rect x="110" y="146" width="280" height="10" rx="5" fill="#DCFCE7"/>
  <rect x="110" y="194" width="320" height="170" rx="20" fill="#F0FDF4" stroke="#BBF7D0"/>
  <rect x="460" y="194" width="310" height="82" rx="20" fill="#ECFDF5"/>
  <rect x="460" y="292" width="310" height="72" rx="20" fill="#F8FAFC"/>
  <circle cx="180" cy="260" r="44" fill="#059669" fill-opacity="0.14"/>
  <path d="M160 262L176 278L202 252" stroke="#059669" stroke-width="10" stroke-linecap="round" stroke-linejoin="round"/>
  <rect x="120" y="388" width="650" height="92" rx="20" fill="#F8FAFC"/>
  <rect x="146" y="414" width="150" height="14" rx="7" fill="#A7F3D0"/>
  <rect x="146" y="438" width="280" height="10" rx="5" fill="#D1FAE5"/>
  <rect x="610" y="408" width="128" height="48" rx="14" fill="#059669"/>
</svg>
